<?xml version="1.0" encoding="utf-8"?>
<!-- Generator: Adobe Illustrator 24.0.2, SVG Export Plug-In . SVG Version: 6.00 Build 0)  -->
<svg version="1.1" xmlns="http://www.w3.org/2000/svg" xmlns:xlink="http://www.w3.org/1999/xlink" x="4px" y="4px"
	 viewBox="0 0 560 288" style="enable-background:new 0 0 560 288;" xml:space="preserve">
<style type="text/css">
	.st0{fill:#0C0602;}
	#bb{
            fill: #0C0602;
        }
        @keyframes yawe {
            from {
                opacity: 1;
            }
            to {
                opacity: 0;
            }
        }
        #bb {
            animation: yawe 2s linear 1s infinite alternate;
        }

</style>
 <bb x="260" y="130" width="60" height="75" />
<g id="Capa_1">
	<g>
		<path d="M250.95,216.05c0.16-2.72,0.29-5.27,0.48-7.82c0.41-5.68,0.8-11.37,1.3-17.04c0.56-6.35,1.14-12.7,1.9-19.03
			c0.91-7.56,1.94-15.1,3.09-22.63c0.98-6.44,2.28-12.83,4.44-19.01c0.8-2.3,1.88-4.42,3.38-6.35c1.51-1.93,2.9-3.97,3.3-6.48
			c0.43-2.68-1.8-5.06-4.5-4.77c-0.27,0.03-0.6,0.39-0.72,0.67c-2.94,6.72-5.07,13.7-6.35,20.92c-0.54,3.08-0.78,6.21-1.38,9.28
			c-1.38,6.99-10.23,10.63-16.21,6.73c-2.62-1.71-3.82-4.23-3.5-7.26c0.48-4.57,1.03-9.15,1.89-13.66
			c2.3-12.11,6.34-23.63,12.36-34.42c1.19-2.14,2.41-4.28,3.79-6.29c2.16-3.14,5.28-5.14,8.74-6.57c4.46-1.85,9.1-2.91,13.96-2.95
			c6.72-0.05,13.43-0.25,20.15-0.17c6.51,0.08,13.05-0.06,19.46,1.52c4.45,1.1,8.64,2.6,11.27,6.68c1.61,2.5,3.15,5.06,4.6,7.66
			c6.76,12.14,11.04,25.14,13.19,38.85c0.46,2.94,0.86,5.9,1.13,8.86c0.61,6.74-4.95,9.66-9.97,9.22c-5.02-0.45-9.49-3.9-10.07-10.1
			c-0.91-9.66-3.4-18.96-7.17-27.92c-0.39-0.93-0.86-1.32-1.84-1.07c-1.27,0.33-2.61,0.5-3.8,1.01c-2.08,0.88-2.65,2.56-1.53,4.52
			c0.66,1.16,1.45,2.39,2.49,3.18c5.01,3.77,6.96,9.23,8.53,14.91c2.22,8.01,3.59,16.19,4.54,24.43c0.91,7.9,1.81,15.82,2.38,23.75
			c0.73,10.2,1.14,20.42,1.68,30.63c0.01,0.18-0.02,0.36-0.04,0.64c-5.02,0-9.99,0-15.12,0c0,2.43,0,4.75,0,7.08
			c0,8.42,0.03,16.84-0.01,25.25c-0.03,5.82-4.84,10.33-10.56,10c-4.78-0.28-8.85-3.93-9.53-9.09c-0.44-3.31-0.26-6.7-0.28-10.05
			c-0.03-7.66-0.01-15.32-0.01-23.07c-3.31,0-6.57,0-9.95,0c0,0.47,0,0.91,0,1.35c0,10.08,0.06,20.16-0.03,30.24
			c-0.04,4-2.58,8.7-7.29,10.2c-6.56,2.09-13.03-2.76-13.05-9.86c-0.03-10.15,0-20.31,0.01-30.46c0-0.45,0-0.9,0-1.51
			C261.03,216.05,256.04,216.05,250.95,216.05z M291.46,116.75c-14.34-0.11-26.96,11.23-27.63,26.34
			c-0.73,16.26,12.16,28.67,26.82,28.95c15.56,0.29,28.13-11.75,28.45-27C319.43,129.46,306.84,116.65,291.46,116.75z"/>
		<path d="M291.34,75c-10.76,0.07-19.54-8.55-19.55-19.26c-0.01-10.86,8.79-19.52,19.99-19.43c10.45,0.09,19.15,8.62,19.28,19.25
			C311.2,66.34,302.5,74.92,291.34,75z"/>
	</g>
</g>
<g id="bb">
	<g>
		<path class="st0" d="M278.44,158.94c-1.2,0.35-2.57,0.76-3.94,1.13c-2.46,0.67-4.77-0.61-5.52-3.03c-0.71-2.3,0.5-4.75,2.93-5.46
			c3.97-1.16,7.97-2.22,11.98-3.23c1.71-0.43,3.36,0.03,4.9,0.88c1.11,0.61,2.23,1.2,3.49,1.62c-0.18-0.19-0.36-0.38-0.54-0.58
			c-1.1-1.24-2.29-2.41-3.28-3.73c-1.71-2.28-1.34-4.96,0.78-6.48c2.13-1.54,4.74-1.03,6.43,1.25c1.47,1.98,3.08,3.43,4.7,4.23
			c1.06-1.82,2.56-3.11,4.64-3.66c5.4-1.41,10.45,3.56,8.78,8.87c-1.53,4.85-4.12,9.17-8.25,12.32c-4.85,3.71-10.3,4.34-15.96,2.38
			c-2.9-1-5.64-2.48-8.36-3.93C280.21,160.99,279.48,159.93,278.44,158.94z"/>
		<path class="st0" d="M301.36,123.72c4.84,0,8.68,3.85,8.67,8.71c-0.01,4.78-3.83,8.61-8.62,8.64c-4.83,0.03-8.73-3.84-8.75-8.65
			C292.64,127.61,296.54,123.72,301.36,123.72z"/>
	</g>
</g>
</svg>
